<?xml version="1.0" encoding="windows-1252"?>
<!-- Generator: Adobe Illustrator 19.0.0, SVG Export Plug-In . SVG Version: 6.00 Build 0)  -->
<svg version="1.1" id="Layer_1" xmlns="http://www.w3.org/2000/svg" xmlns:xlink="http://www.w3.org/1999/xlink" x="0px" y="0px" viewBox="0 0 511.979 511.979" style="enable-background:new 0 0 511.979 511.979;" xml:space="preserve">
<path style="fill:#25B6D2;" d="M401.6,282.5c-14.128,7.888-38.208,15.776-64.784,15.776c-40.704,0-78.08-16.608-101.328-47.344  c-11.216-14.112-19.52-31.968-23.264-53.984h-26.992v-29.472h22.848c0-2.08,0-4.56,0-7.056c0-4.144,0.4-8.304,0.4-12.448h-23.248  v-29.504h27.824c5.392-22.416,15.36-41.536,28.656-56.896c23.664-26.576,56.896-42.352,95.92-42.352  c25.328,0,47.344,5.808,62.304,12.448l-11.632,47.344c-10.8-4.56-27.824-9.968-46.112-9.968c-19.92,0-38.208,6.64-51.072,22.416  c-5.808,6.656-10.368,16.208-13.28,27.008h103.408v29.488H271.6c-0.4,4.16-0.4,8.72-0.4,12.88c0,2.48,0,4.16,0,6.64h110.048v29.488  h-104.24c2.912,12.464,7.472,22.016,13.696,29.072c13.28,14.96,32.8,21.168,53.568,21.168c19.104,0,38.624-6.224,47.344-10.8  L401.6,282.5z"/>
<path style="fill:#2C3E50;" d="M108.96,343.604v132.16c0,0,60.48-31.68,90.72-16.48c30.24,15.2,113.44,37.12,163.36,32.96  s130.08-70.24,145.28-92.16c15.2-22.08-19.68-24.8-54.4-6.88c-34.72,17.92-146.72,53.6-199.68,0c0,0,122.56,11.04,127.04,0  s-13.6-28.96-108.96-49.6C176.96,322.964,108.96,343.604,108.96,343.604z"/>
<rect y="343.604" style="fill:#E04F5F;" width="72.64" height="148.64"/>
<g>
</g>
<g>
</g>
<g>
</g>
<g>
</g>
<g>
</g>
<g>
</g>
<g>
</g>
<g>
</g>
<g>
</g>
<g>
</g>
<g>
</g>
<g>
</g>
<g>
</g>
<g>
</g>
<g>
</g>
</svg>